<?xml version="1.0" standalone="no"?>
<!DOCTYPE svg PUBLIC "-//W3C//DTD SVG 20010904//EN"
 "http://www.w3.org/TR/2001/REC-SVG-20010904/DTD/svg10.dtd">
<svg version="1.0" xmlns="http://www.w3.org/2000/svg"
 width="896.000000pt" height="542.000000pt" viewBox="0 0 896.000000 542.000000"
 preserveAspectRatio="xMidYMid meet">

<g transform="translate(0.000000,542.000000) scale(0.100000,-0.100000)"
fill="#000000" stroke="none">
<path d="M2705 5374 c-33 -2 -220 -11 -415 -19 -435 -19 -525 -26 -860 -71
-297 -39 -452 -71 -585 -119 -307 -111 -459 -232 -542 -430 -31 -74 -56 -181
-107 -455 -56 -305 -71 -413 -91 -665 -9 -110 -27 -324 -41 -475 -32 -358 -40
-662 -25 -910 13 -208 42 -496 67 -648 8 -51 19 -202 24 -335 10 -263 24 -363
70 -489 92 -250 246 -407 470 -476 216 -66 434 -84 1525 -122 160 -6 425 -19
590 -30 544 -36 825 -49 1220 -59 1656 -42 2887 -39 3520 9 195 15 565 58 649
76 213 45 348 106 445 202 165 165 217 380 241 1002 6 149 20 383 31 518 27
307 38 1171 20 1452 -19 285 -80 925 -102 1069 -61 400 -170 614 -367 719 -64
34 -205 73 -352 96 -225 36 -751 71 -1290 86 -477 13 -1202 37 -1660 55 -348
14 -2280 29 -2435 19z"/>
</g>
</svg>
