<?xml version="1.0" standalone="no"?>
<!DOCTYPE svg PUBLIC "-//W3C//DTD SVG 20010904//EN"
 "http://www.w3.org/TR/2001/REC-SVG-20010904/DTD/svg10.dtd">
<svg version="1.0" xmlns="http://www.w3.org/2000/svg"
 width="896.000000pt" height="542.000000pt" viewBox="0 0 896.000000 542.000000"
 preserveAspectRatio="xMidYMid meet">

<g transform="translate(0.000000,542.000000) scale(0.100000,-0.100000)"
fill="#000000" stroke="none">
<path d="M4955 5370 c-203 -5 -586 -14 -850 -20 -449 -10 -838 -28 -1375 -65
-124 -8 -349 -19 -500 -25 -151 -5 -403 -14 -560 -20 -964 -35 -1178 -94
-1369 -380 -121 -181 -157 -324 -171 -685 -6 -137 -17 -291 -25 -342 -80 -496
-92 -989 -40 -1565 13 -152 32 -363 40 -470 9 -106 23 -244 31 -307 26 -200
112 -642 146 -745 77 -243 237 -379 584 -499 139 -49 248 -70 549 -111 308
-41 418 -51 830 -72 587 -30 2282 -27 3070 6 221 9 820 28 1540 50 905 27
1393 82 1581 178 200 102 311 317 373 723 22 146 84 798 102 1079 18 278 6
1135 -20 1444 -11 137 -25 371 -31 520 -26 670 -95 903 -311 1055 -93 66 -235
118 -409 151 -172 33 -635 74 -1020 91 -306 14 -1691 19 -2165 9z"/>
</g>
</svg>
