<svg xmlns="http://www.w3.org/2000/svg" viewBox="0 0 600 600" width="600" height="600">
  <defs>
    <linearGradient id="bg2" x1="0" x2="0" y1="0" y2="1">
      <stop offset="0" stop-color="#ff9ec5"/>
      <stop offset="1" stop-color="#ffd6e6"/>
    </linearGradient>
  </defs>
  <rect width="600" height="600" fill="url(#bg2)"/>
  <circle cx="120" cy="120" r="40" fill="#fff" opacity="0.6"/>
  <circle cx="500" cy="160" r="22" fill="#fff" opacity="0.6"/>
  <ellipse cx="300" cy="520" rx="240" ry="140" fill="#7c2d4a"/>
  <ellipse cx="300" cy="260" rx="135" ry="155" fill="#ffe4cc" stroke="#1a1a1a" stroke-width="6"/>
  <path d="M165 220 Q300 70 435 220 Q420 150 300 130 Q180 150 165 220 Z" fill="#3a2415" stroke="#1a1a1a" stroke-width="6"/>
  <circle cx="250" cy="270" r="14" fill="#fff" stroke="#1a1a1a" stroke-width="4"/>
  <circle cx="252" cy="272" r="6" fill="#1a1a1a"/>
  <circle cx="350" cy="270" r="14" fill="#fff" stroke="#1a1a1a" stroke-width="4"/>
  <circle cx="352" cy="272" r="6" fill="#1a1a1a"/>
  <path d="M255 335 Q300 365 345 335" stroke="#1a1a1a" stroke-width="6" fill="none" stroke-linecap="round"/>
  <circle cx="225" cy="315" r="14" fill="#ff8eb0" opacity="0.7"/>
  <circle cx="375" cy="315" r="14" fill="#ff8eb0" opacity="0.7"/>
  <text x="300" y="580" text-anchor="middle" font-family="Arial Black" font-size="22" fill="#fff" stroke="#1a1a1a" stroke-width="3" paint-order="stroke">NEGASVA</text>
</svg>
